<svg width="63" height="60" viewBox="0 0 63 60" fill="none" xmlns="http://www.w3.org/2000/svg">
<path d="M58 60H14C11.239 60 9 57.761 9 55V22C9 19.239 11.239 17 14 17H58C60.761 17 63 19.239 63 22V55C63 57.761 60.761 60 58 60Z" fill="#B8E986"/>
<path d="M45 27.5H47" stroke="#709E34" stroke-width="5" stroke-miterlimit="10" stroke-linecap="round"/>
<path d="M2.5 21.5H55.5" stroke="#8DC641" stroke-width="5" stroke-miterlimit="10" stroke-linecap="round"/>
<path d="M53 50H5V14H53V50ZM53 9H5C2.239 9 0 11.239 0 14V50C0 52.761 2.239 55 5 55H53C55.761 55 58 52.761 58 50V14C58 11.239 55.761 9 53 9Z" fill="#8DC641"/>
<path d="M34 6V6.355L34.05 6.707L34.235 8H23.765L23.95 6.707L24 6.355V6H34ZM34 1H24C21.239 1 19 3.239 19 6L18 13H40L39 6C39 3.239 36.761 1 34 1Z" fill="#8DC641"/>
<path d="M28.111 46.068C23.424 46.068 19.611 42.255 19.611 37.568C19.611 32.881 23.424 29.068 28.111 29.068C32.798 29.068 36.611 32.881 36.611 37.568C36.611 42.255 32.798 46.068 28.111 46.068Z" fill="#709E34"/>
<path d="M28.111 31.568C31.42 31.568 34.111 34.259 34.111 37.568C34.111 40.877 31.42 43.568 28.111 43.568C24.802 43.568 22.111 40.877 22.111 37.568C22.111 34.259 24.802 31.568 28.111 31.568ZM28.111 26.568C22.036 26.568 17.111 31.493 17.111 37.568C17.111 43.643 22.036 48.568 28.111 48.568C34.186 48.568 39.111 43.643 39.111 37.568C39.111 31.493 34.186 26.568 28.111 26.568Z" fill="#8DC641"/>
<path d="M4 2.5H11" stroke="#8DC641" stroke-width="5" stroke-miterlimit="10" stroke-linecap="round"/>
</svg>
